<?xml version="1.0" encoding="UTF-8" standalone="no"?><!DOCTYPE svg PUBLIC "-//W3C//DTD SVG 1.1//EN" "http://www.w3.org/Graphics/SVG/1.1/DTD/svg11.dtd"><svg width="100%" height="100%" viewBox="0 0 938 938" version="1.1" xmlns="http://www.w3.org/2000/svg" xmlns:xlink="http://www.w3.org/1999/xlink" xml:space="preserve" xmlns:serif="http://www.serif.com/" style="fill-rule:evenodd;clip-rule:evenodd;stroke-linecap:round;stroke-miterlimit:10;"><g><g><circle cx="189.062" cy="695.313" r="123.437" style="fill:#f3d55b;"/><g><rect x="178.058" y="746.875" width="28.125" height="31.25" style="fill:#b19047;"/><rect x="178.058" y="612.5" width="28.125" height="31.25" style="fill:#b19047;"/><g transform="matrix(184.896396,0,0,184.896396,251.898385,760.763987)"></g><text x="128.574px" y="760.764px" style="font-family:'Arial-BoldMT', 'Arial', sans-serif;font-weight:700;font-size:184.896px;fill:#b19047;">S</text></g></g><g><circle cx="467.187" cy="585.938" r="123.437" style="fill:#f3d55b;"/><g><rect x="456.183" y="637.5" width="28.125" height="31.25" style="fill:#b19047;"/><rect x="456.183" y="503.125" width="28.125" height="31.25" style="fill:#b19047;"/><g transform="matrix(184.896396,0,0,184.896396,530.023385,651.388987)"></g><text x="406.699px" y="651.389px" style="font-family:'Arial-BoldMT', 'Arial', sans-serif;font-weight:700;font-size:184.896px;fill:#b19047;">S</text></g></g><g><circle cx="742.188" cy="476.563" r="123.438" style="fill:#f3d55b;"/><g><rect x="731.183" y="528.125" width="28.125" height="31.25" style="fill:#b19047;"/><rect x="731.183" y="393.75" width="28.125" height="31.25" style="fill:#b19047;"/><g transform="matrix(184.896396,0,0,184.896396,805.023385,542.013987)"></g><text x="681.699px" y="542.014px" style="font-family:'Arial-BoldMT', 'Arial', sans-serif;font-weight:700;font-size:184.896px;fill:#b19047;">S</text></g></g><path d="M730.069,96.773l114.902,-0.761l0.761,114.902" style="fill:none;stroke:#4fba70;stroke-width:54.17px;"/><path d="M93.75,462.5l93.75,-90.625l87.5,75l246.875,-246.875l115.625,106.25c0,0 145.899,-147.844 207.472,-210.238" style="fill:none;stroke:#4fba70;stroke-width:54.17px;stroke-linejoin:round;stroke-miterlimit:1.5;"/><path d="M106.25,846.875l165.625,0" style="fill:none;stroke:#f0c41a;stroke-width:54.17px;stroke-linejoin:round;stroke-miterlimit:1.5;"/><path d="M384.375,737.5l165.625,0" style="fill:none;stroke:#f0c41a;stroke-width:54.17px;stroke-linejoin:round;stroke-miterlimit:1.5;"/><path d="M384.375,846.875l165.625,0" style="fill:none;stroke:#f0c41a;stroke-width:54.17px;stroke-linejoin:round;stroke-miterlimit:1.5;"/><path d="M384.375,792.187l165.625,0" style="fill:none;stroke:#f3d55b;stroke-width:54.17px;stroke-linejoin:round;stroke-miterlimit:1.5;"/><path d="M659.375,628.125l165.625,0" style="fill:none;stroke:#f0c41a;stroke-width:54.17px;stroke-linejoin:round;stroke-miterlimit:1.5;"/><path d="M659.375,737.5l165.625,0" style="fill:none;stroke:#f0c41a;stroke-width:54.17px;stroke-linejoin:round;stroke-miterlimit:1.5;"/><path d="M659.375,682.812l165.625,0" style="fill:none;stroke:#f3d55b;stroke-width:54.17px;stroke-linejoin:round;stroke-miterlimit:1.5;"/><path d="M659.375,846.875l165.625,0" style="fill:none;stroke:#f0c41a;stroke-width:54.17px;stroke-linejoin:round;stroke-miterlimit:1.5;"/><path d="M659.375,792.187l165.625,0" style="fill:none;stroke:#f3d55b;stroke-width:54.17px;stroke-linejoin:round;stroke-miterlimit:1.5;"/></g><rect x="1.562" y="1.562" width="934.375" height="934.375" style="fill:none;stroke:#4fba70;stroke-width:29.17px;stroke-linejoin:round;stroke-miterlimit:1.5;"/></svg>